<svg width="180" height="41" fill="none" xmlns="http://www.w3.org/2000/svg"><path d="M20.867 16.331 18.16 8.936l-2.708 7.395h5.416zm36.163 2.966c.8.794 1.786 1.192 2.96 1.192s2.16-.398 2.96-1.192c.801-.794 1.201-1.792 1.201-2.992s-.4-2.198-1.2-2.992c-.8-.795-1.787-1.192-2.96-1.192-1.175 0-2.161.397-2.962 1.192-.8.794-1.2 1.792-1.2 2.992s.4 2.198 1.2 2.992zm19.065 1.245c-1.21 0-2.214-.398-3.014-1.192-.8-.812-1.2-1.827-1.2-3.045s.4-2.224 1.2-3.019c.8-.812 1.805-1.218 3.014-1.218 1.21 0 2.214.406 3.014 1.218.8.795 1.2 1.801 1.2 3.019 0 1.218-.4 2.233-1.2 3.045-.8.794-1.805 1.192-3.014 1.192zm86.617 0c-1.21 0-2.214-.398-3.014-1.192-.801-.812-1.201-1.827-1.201-3.045s.4-2.224 1.201-3.019c.8-.812 1.804-1.218 3.014-1.218 1.209 0 2.214.406 3.014 1.218.8.795 1.2 1.801 1.2 3.019 0 1.218-.4 2.233-1.2 3.045-.8.794-1.805 1.192-3.014 1.192z" fill="#fff"/><path fill-rule="evenodd" clip-rule="evenodd" d="M0 0h180v32.61H26.792L18.27 41l-8.524-8.39H0V0zm23.455 22.925-1.632-3.734h-7.327l-1.604 3.734H9.558L16.566 5.33h3.186l7.01 17.595h-3.307zm36.535.344c-1.956 0-3.619-.67-4.988-2.012-1.37-1.342-2.054-2.993-2.054-4.952 0-1.96.685-3.61 2.054-4.951 1.37-1.342 3.032-2.013 4.988-2.013 1.974 0 3.637.67 4.988 2.013 1.37 1.341 2.054 2.992 2.054 4.951 0 1.96-.685 3.61-2.054 4.951-1.351 1.342-3.014 2.013-4.988 2.013zm-20.02-.344V9.685H29.756v7.547c0 1.2-.205 2.039-.614 2.515-.409.477-1.022.645-1.84.503v2.675c1.707.159 3.023-.203 3.948-1.086.924-.883 1.387-2.374 1.387-4.475V12.44h4.454v10.486h2.88zm12.294-10.486V9.685h-8.936v13.24h2.88V12.439h6.056zm28.98-1.06c-1.299-1.358-2.864-2.038-4.695-2.038-2.028 0-3.584.75-4.668 2.25V9.686H69V27.28h2.88v-6.235c1.085 1.482 2.641 2.224 4.669 2.224 1.831 0 3.396-.67 4.694-2.012s1.947-2.993 1.947-4.952c0-1.942-.649-3.583-1.947-4.925zM94.82 9.686h2.214v13.24h-2.827v-8.42l-6.829 8.42h-2.214V9.685h2.828v8.394l6.828-8.394zm15.746 2.754V9.685H98.963v2.754h4.375v10.486h2.88V12.439h4.348zm15.553-2.754v13.24h-2.801v-8.712l-3.841 6.064h-.346l-3.815-6.037v8.685h-2.801V9.685h2.935l3.867 6.117 3.868-6.117h2.934zm15.198 0h-2.214l-6.829 8.394V9.685h-2.827v13.24h2.214l6.828-8.42v8.42h2.828V9.685zm14.814 13.24h-3.441l-5.468-6.117v6.117h-2.881V9.685h2.881v5.852l5.174-5.852h3.521l-5.868 6.488 6.082 6.752zm13.676-13.24h-2.881v1.88c-1.085-1.482-2.641-2.224-4.668-2.224-1.831 0-3.396.67-4.694 2.013-1.298 1.341-1.948 2.992-1.948 4.951 0 1.942.65 3.592 1.948 4.951 1.298 1.342 2.863 2.013 4.694 2.013 2.027 0 3.583-.75 4.668-2.25v1.906h2.881V9.685z" fill="#fff"/></svg>