<?xml version="1.0" encoding="UTF-8" standalone="no"?>
<!-- Uploaded to: SVG Repo, www.svgrepo.com, Generator: SVG Repo Mixer Tools -->

<svg
   width="800px"
   height="800px"
   viewBox="0 0 1024 1024"
   class="icon"
   version="1.1"
   id="svg44"
   sodipodi:docname="hint.svg"
   inkscape:version="1.3.2 (091e20e, 2023-11-25, custom)"
   xmlns:inkscape="http://www.inkscape.org/namespaces/inkscape"
   xmlns:sodipodi="http://sodipodi.sourceforge.net/DTD/sodipodi-0.dtd"
   xmlns="http://www.w3.org/2000/svg"
   xmlns:svg="http://www.w3.org/2000/svg">
  <defs
     id="defs44" />
  <sodipodi:namedview
     id="namedview44"
     pagecolor="#ffffff"
     bordercolor="#000000"
     borderopacity="0.25"
     inkscape:showpageshadow="2"
     inkscape:pageopacity="0.0"
     inkscape:pagecheckerboard="0"
     inkscape:deskcolor="#d1d1d1"
     inkscape:zoom="0.44989669"
     inkscape:cx="138.92078"
     inkscape:cy="510.11711"
     inkscape:window-width="1366"
     inkscape:window-height="705"
     inkscape:window-x="-8"
     inkscape:window-y="-8"
     inkscape:window-maximized="1"
     inkscape:current-layer="svg44" />
  <rect
     style="fill:#f4ea85;fill-opacity:1;stroke:#000000;stroke-width:2.25185;stroke-dasharray:none;stroke-opacity:0"
     id="rect1"
     width="272.31476"
     height="365.18509"
     x="368.37393"
     y="359.95737" />
  <path
     d="m 831.33422,455.55903 v 26.29105 c 0,4.62884 -0.13771,9.21854 -0.41155,13.76912 v -26.28948 c 0.27384,-4.55216 0.41155,-9.14186 0.41155,-13.77069"
     fill="#e7ba4a"
     id="path7"
     style="stroke:#000000;stroke-width:2.25185;stroke-dasharray:none;stroke-opacity:0" />
  <path
     d="m 611.96407,709.27922 v 26.28948 c 0.007,5.14524 -2.46777,5.21565 -11.84592,5.21565 v -26.28949 c 9.37971,0 11.85375,-0.0704 11.84592,-5.21564 z"
     fill="#e7ba4a"
     id="path9"
     style="stroke:#000000;stroke-width:2.25185;stroke-dasharray:none;stroke-opacity:0" />
  <path
     d="m 611.96407,709.27922 v 26.28948 c 0,0.27855 -0.007,0.54144 -0.0219,0.79182 v -26.28949 c 0.0157,-0.25038 0.0219,-0.51328 0.0219,-0.79181 m -0.0219,0.79181 v 26.28949 c -0.072,1.21433 -0.33332,2.0969 -0.86694,2.73849 v -26.2895 c 0.53362,-0.64158 0.79495,-1.52416 0.86694,-2.73848"
     fill="#e7ba4a"
     id="path10"
     style="stroke:#000000;stroke-width:2.25185;stroke-dasharray:none;stroke-opacity:0" />
  <path
     d="m 611.07836,712.80639 v 26.29105 a 3.164128,3.164128 0 0 1 -0.70105,0.61185 v -26.29261 a 3.0045132,3.0045132 0 0 0 0.70105,-0.61029 m -0.70105,0.61029 v 26.29105 a 3.9121266,3.9121266 0 0 1 -0.82311,0.40373 v -26.29105 c 0.30671,-0.1158 0.58056,-0.24725 0.82311,-0.40373 m -0.82311,0.39904 v 26.29105 a 8.6364109,8.6364109 0 0 1 -1.85434,0.42408 v -26.29106 a 8.5174818,8.5174818 0 0 0 1.85434,-0.42407 m -1.85434,0.4272 v 26.2895 c -1.78394,0.24098 -4.24701,0.25193 -7.58483,0.25193 v -26.28949 c 3.33625,0 5.7962,-0.0109 7.58483,-0.25194"
     fill="#e7ba4a"
     id="path11"
     style="stroke:#000000;stroke-width:2.25185;stroke-dasharray:none;stroke-opacity:0" />
  <path
     d="m 405.14402,735.02727 v -26.29106 c 0,4.3941 3.29714,5.7477 9.43918,5.8369 v 26.28948 c -6.14047,-0.0892 -9.43918,-1.44279 -9.43918,-5.83532 z"
     fill="#e7ba4a"
     id="path12"
     style="stroke:#000000;stroke-width:2.25185;stroke-dasharray:none;stroke-opacity:0" />
  <path
     d="m 414.5832,714.57624 v 26.28949 c -6.14204,-0.0923 -9.43918,-1.44593 -9.43918,-5.83533 v -26.29106 c 0,4.39097 3.29871,5.74457 9.43918,5.8369"
     fill="#e7ba4a"
     id="path13"
     style="stroke:#000000;stroke-width:2.25185;stroke-dasharray:none;stroke-opacity:0" />
  <path
     d="m 481.93907,706.22776 v 26.29105 c 0.0328,6.01372 -2.08438,8.30936 -8.67241,8.37821 v -26.28949 c 6.58959,-0.0704 8.70214,-2.36449 8.67241,-8.37977 z"
     fill="#e7ba4a"
     id="path14"
     style="stroke:#000000;stroke-width:2.25185;stroke-dasharray:none;stroke-opacity:0" />
  <path
     d="m 481.93907,706.22776 v 26.29105 c 0.002,0.48041 -0.007,0.93109 -0.0328,1.35829 v -26.29106 c 0.0251,-0.42876 0.036,-0.87944 0.0328,-1.35828 m -0.0344,1.35828 v 26.29106 c -0.12362,2.07499 -0.58682,3.62576 -1.52259,4.73368 v -26.29106 c 0.93733,-1.10635 1.39897,-2.65868 1.52259,-4.73368"
     fill="#e7ba4a"
     id="path15"
     style="stroke:#000000;stroke-width:2.25185;stroke-dasharray:none;stroke-opacity:0" />
  <path
     d="m 480.3836,712.32285 v 26.29105 a 5.0090868,5.0090868 0 0 1 -1.13764,0.99212 v -26.2895 c 0.43816,-0.28166 0.81685,-0.61185 1.13764,-0.99367"
     fill="#e7ba4a"
     id="path16"
     style="stroke:#000000;stroke-width:2.25185;stroke-dasharray:none;stroke-opacity:0" />
  <path
     d="m 479.24752,713.3134 v 26.28949 a 6.4910004,6.4910004 0 0 1 -1.24093,0.60716 V 713.919 c 0.45851,-0.16745 0.8732,-0.36618 1.24093,-0.6056 m -1.24249,0.6056 v 26.29105 c -0.64002,0.2316 -1.37081,0.40686 -2.20174,0.5164 v -26.28949 c 0.83093,-0.11111 1.56172,-0.28168 2.20174,-0.51796 m -2.20174,0.52109 v 26.28949 c -0.75895,0.10172 -1.59771,0.15649 -2.53506,0.16588 V 714.6044 a 20.152146,20.152146 0 0 0 2.53506,-0.16431"
     fill="#e7ba4a"
     id="path17"
     style="stroke:#000000;stroke-width:2.25185;stroke-dasharray:none;stroke-opacity:0" />
  <path
     d="m 473.26823,714.60753 v 26.29106 a 1934.0459,1934.0459 0 0 0 -15.63755,-0.17214 c -4.14842,-0.0266 -8.30154,-0.0423 -12.45152,-0.0423 a 2580.1601,2580.1601 0 0 0 -30.59126,0.18466 v -26.2895 c 5.42063,-0.0611 10.83658,-0.11111 16.25722,-0.14396 4.27205,-0.0267 8.54566,-0.0391 14.33404,-0.0423 4.14998,0 8.30466,0.0203 12.45152,0.0423 4.92302,0.0328 9.84603,0.0876 15.63755,0.17213 z"
     fill="#e7ba4a"
     id="path18"
     style="stroke:#000000;stroke-width:2.25185;stroke-dasharray:none;stroke-opacity:0" />
  <path
     d="m 473.26823,714.60753 v 26.29106 a 1934.0459,1934.0459 0 0 0 -15.63755,-0.17214 c -4.14842,-0.0266 -8.30154,-0.0423 -12.45152,-0.0423 a 2580.1601,2580.1601 0 0 0 -30.59126,0.18466 v -26.2895 c 5.42063,-0.0611 10.83658,-0.11111 16.25722,-0.14396 4.27205,-0.0267 8.54566,-0.0391 14.33404,-0.0423 4.14998,0 8.30466,0.0203 12.45152,0.0423 4.92302,0.0328 9.84603,0.0876 15.63755,0.17213"
     fill="#e7ba4a"
     id="path19"
     style="stroke:#000000;stroke-width:2.25185;stroke-dasharray:none;stroke-opacity:0" />
  <path
     d="m 596.93368,714.49955 v 26.2895 l -5.05291,-0.009 c -2.80733,-0.007 -5.61625,-0.0141 -8.42358,-0.0235 a 4164.5777,4164.5777 0 0 0 -14.72212,-0.0391 c -4.9465,0 -8.19669,0.009 -11.44689,0.0313 -4.12494,0.0313 -8.24675,0.0767 -12.36857,0.15806 v -26.2895 a 959.40992,959.40992 0 0 1 12.36857,-0.15805 c 3.24863,-0.0219 6.50197,-0.0312 11.44689,-0.0312 1.96389,0 3.92465,0.002 5.8901,0.009 2.94348,0.007 5.88697,0.0172 8.83202,0.0281 2.80733,0.007 5.61311,0.0187 8.42358,0.0251 z"
     fill="#e7ba4a"
     id="path20"
     style="stroke:#000000;stroke-width:2.25185;stroke-dasharray:none;stroke-opacity:0" />
  <path
     d="m 596.93368,714.49955 v 26.2895 l -5.05291,-0.009 c -2.80733,-0.007 -5.61625,-0.0141 -8.42358,-0.0235 a 4164.5777,4164.5777 0 0 0 -14.72212,-0.0391 c -4.9465,0 -8.19669,0.009 -11.44689,0.0313 -4.12494,0.0313 -8.24675,0.0767 -12.36857,0.15806 v -26.2895 a 959.40992,959.40992 0 0 1 12.36857,-0.15805 c 3.24863,-0.0219 6.50197,-0.0312 11.44689,-0.0312 1.96389,0 3.92465,0.002 5.8901,0.009 2.94348,0.007 5.88697,0.0172 8.83202,0.0281 2.80733,0.007 5.61311,0.0187 8.42358,0.0251 l 5.05291,0.009"
     fill="#e7ba4a"
     id="path21"
     style="stroke:#000000;stroke-width:2.25185;stroke-dasharray:none;stroke-opacity:0" />
  <path
     d="m 508.04411,208.57328 c 79.76657,0.13441 156.97553,26.10092 214.45789,74.45899 a 478.23584,440.47749 0 0 1 2.94919,2.51515 c 54.76916,47.37435 82.49377,102.14576 82.70004,163.51079 0.0384,12.0426 -0.98246,24.34098 -3.06632,36.88414 -7.70079,46.29874 -35.96556,84.9268 -77.34531,117.21381 -23.96426,18.71169 -49.74661,35.95512 -75.06745,53.53815 -18.56757,12.91179 -29.985,27.87683 -29.96928,47.24856 a 61.711235,56.838922 0 0 0 0.45629,6.7436 c 0.25522,1.97725 0.42131,3.56811 0.42307,4.85459 0.009,5.29417 -2.75692,5.36675 -13.23384,5.36675 l -3.55407,0.005 -5.64491,-0.009 c -3.13629,-0.007 -6.27429,-0.0172 -9.41055,-0.0252 l -9.86681,-0.0283 a 1651.2004,1520.8325 0 0 0 -6.58018,-0.009 c -5.52432,0 -9.15705,0.009 -12.78804,0.033 -4.60826,0.0299 -9.21474,0.0755 -13.81773,0.16099 -8.80738,-0.13756 -11.31431,-2.45866 -11.27761,-8.92682 0.30069,-54.11612 0.0681,-108.24998 0.38985,-162.35963 0.0367,-3.37336 2.43174,-7.52097 5.44214,-9.98144 26.17222,-21.43609 52.67306,-42.60182 79.19492,-63.75612 7.12214,-5.671 12.16743,-12.02151 12.16743,-19.8968 0,-0.97103 -0.0769,-1.95647 -0.23952,-2.9725 -2.43523,-13.20654 -15.0974,-21.26875 -28.94133,-21.52316 -6.36868,0.0786 -11.60449,1.23026 -16.50995,3.61489 -0.82165,0.39928 -1.62932,0.82761 -2.42648,1.29457 -7.29523,4.26049 -13.3597,9.87996 -19.87872,14.97135 -19.59375,15.24996 -39.11933,30.54334 -58.67811,45.80771 -26.94492,-21.19628 -53.5734,-42.61478 -81.00781,-63.3506 -6.25502,-4.73698 -14.94179,-8.603 -23.27718,-10.11978 -3.69918,-0.46211 -4.56979,-0.50237 -5.42639,-0.50882 -10.94718,0.31884 -19.43466,5.33452 -23.89432,12.2309 -2.49467,3.85804 -3.75513,7.88645 -3.75686,11.87814 -0.002,6.22647 3.05932,12.36766 9.30736,17.65386 13.19887,11.16174 26.9222,21.92736 40.49694,32.80886 17.47842,14.01168 35.22259,27.8429 52.3881,42.09774 2.9562,2.45883 5.18163,6.64843 5.20089,10.04906 0.31639,54.11617 0.12221,108.24512 0.36711,162.35809 0.0367,6.18789 -2.3286,8.54843 -9.68674,8.62092 a 2049.3742,1887.5695 0 0 0 -31.38009,-0.21911 c -6.46481,0.002 -11.24263,0.0172 -16.01169,0.0425 -6.05574,0.033 -12.10975,0.0832 -18.16721,0.1474 -7.60465,-0.10265 -11.30735,-1.80805 -10.41402,-7.59359 0.61363,-3.45539 0.87584,-6.47278 0.87235,-9.38241 -0.0263,-23.70969 -17.81233,-40.41513 -40.11405,-55.74719 -24.91874,-17.13892 -50.15393,-34.15507 -73.16889,-52.85252 -49.27809,-40.04323 -72.90493,-87.31284 -73.00631,-140.14571 -0.0193,-10.96537 0.97549,-22.17047 2.95794,-33.59935 15.17431,-87.35647 73.30877,-151.53615 172.41035,-189.88071 a 305.9164,281.7632 0 0 1 6.44559,-2.41686 c 38.38334,-13.9698 78.86626,-20.75033 118.98032,-20.80497 z"
     fill="#f9f4be"
     id="path22"
     style="fill:#f4ea85;fill-opacity:1;stroke:#000000;stroke-width:2.25185;stroke-dasharray:none;stroke-opacity:0" />
  <path
     d="m 544.9243,714.61849 v 26.28948 c -7.88372,-0.13457 -10.12614,-2.38796 -10.09329,-8.67552 v -26.2895 c -0.0328,6.28601 2.20957,8.54096 10.09329,8.67554 z"
     fill="#e7ba4a"
     id="path23"
     style="stroke:#000000;stroke-width:2.25185;stroke-dasharray:none;stroke-opacity:0" />
  <path
     d="m 544.9243,714.61849 v 26.28948 c -7.88372,-0.13457 -10.12614,-2.38796 -10.09329,-8.67552 v -26.2895 c -0.0328,6.28601 2.20957,8.54096 10.09329,8.67554"
     fill="#e7ba4a"
     id="path24"
     style="stroke:#000000;stroke-width:2.25185;stroke-dasharray:none;stroke-opacity:0" />
  <path
     d="m 415.14811,787.07107 c -2.86837,0 -4.91051,0.0516 -6.36424,0.31923 v -3.07336 -3.25959 -3.38007 -3.43955 -3.43641 -3.37226 -3.25332 -3.06555 c 1.45531,-0.26758 3.49587,-0.32078 6.36424,-0.32078 z"
     fill="#e7ba4a"
     id="path25"
     style="stroke:#000000;stroke-width:2.25185;stroke-dasharray:none;stroke-opacity:0" />
  <path
     d="m 415.14811,760.78158 v 26.28949 c -2.48811,0 -4.35342,0.036 -5.75083,0.22377 v -26.28948 c 1.39741,-0.18466 3.26428,-0.22378 5.75083,-0.22378 m -5.75083,0.22378 v 26.28948 c -0.68227,0.0939 -1.25031,0.22064 -1.72759,0.38965 v -26.29106 a 8.4814907,8.4814907 0 0 1 1.72759,-0.38807"
     fill="#e7ba4a"
     id="path26"
     style="stroke:#000000;stroke-width:2.25185;stroke-dasharray:none;stroke-opacity:0" />
  <path
     d="m 405.94209,789.05686 c -0.59465,1.05159 -0.69323,2.65086 -0.69323,5.07325 v -26.28949 c 0.002,-4.4786 0.33958,-6.13734 3.50058,-6.73355 v 0 a 0.07824253,0.07824253 0 0 0 0.0328,-0.007 v 26.2801 c -1.46941,0.2848 -2.33476,0.78242 -2.84021,1.67752 v -3.06555 -3.24863 -3.37537 -3.43486 -3.43484 -3.37225 -3.2502 -3.07023 23.18638 c 0,0.92014 0.23316,2.17515 0,3.06555 z"
     fill="#e7ba4a"
     id="path27"
     style="stroke:#000000;stroke-width:2.25185;stroke-dasharray:none;stroke-opacity:0" />
  <path
     d="m 409.39728,761.00536 v 26.28948 c -0.68227,0.0939 -1.25031,0.22064 -1.72759,0.38965 v -26.29106 a 8.4814907,8.4814907 0 0 1 1.72759,-0.38807"
     fill="#e7ba4a"
     id="path28"
     style="stroke:#000000;stroke-width:2.25185;stroke-dasharray:none;stroke-opacity:0" />
  <path
     d="m 407.67126,761.39186 v 26.2895 c -0.29419,0.10954 -0.55397,0.23003 -0.78243,0.37869 v -26.28948 c 0.2269,-0.14554 0.48824,-0.27072 0.78243,-0.37871 m -0.784,0.37871 v 26.28948 a 2.8621119,2.8621119 0 0 0 -0.65098,0.56804 v -26.29106 c 0.18309,-0.21594 0.39747,-0.40372 0.65098,-0.56646"
     fill="#e7ba4a"
     id="path29"
     style="stroke:#000000;stroke-width:2.25185;stroke-dasharray:none;stroke-opacity:0" />
  <path
     d="m 406.23785,762.34017 v 26.28949 c -0.6056,0.72765 -0.84815,1.78393 -0.93734,3.31905 v -26.29106 c 0.0892,-1.53824 0.33174,-2.59138 0.93734,-3.31748 m -0.93734,3.31905 v 26.29106 c -0.0376,0.64627 -0.0516,1.37707 -0.0516,2.20174 v -26.2895 c 0,-0.8278 0.0125,-1.55859 0.0516,-2.2033"
     fill="#e7ba4a"
     id="path30"
     style="stroke:#000000;stroke-width:2.25185;stroke-dasharray:none;stroke-opacity:0" />
  <path
     d="m 410.82447,759.20602 c 0.92007,0 1.92324,0.004 3.01284,0.0109 h 3.92643 c 10.02534,-0.005 20.05895,-0.009 30.08271,-0.009 20.05914,0 40.10828,0.009 60.16899,0.009 h 93.90128 c 13.59357,0 13.37868,0 13.60496,12.83883 0.0109,0.43007 0.0173,0.85826 0.0141,1.28669 -0.0354,13.23276 -4.5943,24.61971 -15.34428,33.93015 -8.78125,7.63145 -19.038,11.71548 -31.15777,11.71548 l -35.65895,0.0368 c -11.62153,0.0109 -23.23637,0.0225 -34.84968,0.0225 h -1.51779 a 14504.642,15321.988 0 0 1 -50.14031,-0.0898 c -25.94768,-0.1061 -46.47905,-19.75117 -46.3488,-43.70499 l 0.007,-0.56608 0.007,-0.67443 c 0.20506,-13.89844 -1.73446,-14.80856 10.29086,-14.80856 z"
     fill="#f2ea90"
     id="path31"
     style="fill:#ede05d;fill-opacity:1;stroke:#000000;stroke-width:2.25185;stroke-dasharray:none;stroke-opacity:0" />
  <path
     d="m 567.16397,815.15701 v 26.29105 c -11.42028,0.007 -22.84527,0.0219 -34.26398,0.0328 -11.16678,0.0109 -22.32729,0.0235 -33.48624,0.0235 h -0.7793 v -26.29105 h 0.7793 c 11.16208,0 22.32103,-0.0109 33.48624,-0.0219 11.41871,-0.0125 22.8437,-0.0251 34.26398,-0.0344 z"
     fill="#e7ba4a"
     id="path32"
     style="stroke:#000000;stroke-width:2.25185;stroke-dasharray:none;stroke-opacity:0" />
  <path
     d="m 567.16397,815.15701 v 26.29105 c -11.42028,0.007 -22.84527,0.0219 -34.26398,0.0328 -11.16678,0.0109 -22.32729,0.0235 -33.48624,0.0235 h -0.7793 v -26.29105 h 0.7793 c 11.16208,0 22.32103,-0.0109 33.48624,-0.0219 11.41871,-0.0125 22.8437,-0.0251 34.26398,-0.0344"
     fill="#e7ba4a"
     id="path33"
     style="stroke:#000000;stroke-width:2.25185;stroke-dasharray:none;stroke-opacity:0" />
  <path
     d="m 498.6329,815.21491 v 26.29105 h -0.67759 c -7.62708,0 -15.25416,-0.005 -22.87967,-0.0187 -8.43298,-0.0141 -16.86753,-0.0328 -25.29895,-0.0642 -24.93277,-0.097 -44.66084,-17.96448 -44.53565,-39.75346 v -26.29106 c -0.12519,21.78898 19.60601,39.6627 44.53565,39.75503 a 13937.195,13937.195 0 0 0 48.17862,0.0814 z"
     fill="#e7ba4a"
     id="path34"
     style="stroke:#000000;stroke-width:2.25185;stroke-dasharray:none;stroke-opacity:0" />
  <path
     d="m 498.6329,815.21491 v 26.29105 h -0.67759 c -7.62708,0 -15.25416,-0.005 -22.87967,-0.0187 -8.43298,-0.0141 -16.86753,-0.0328 -25.29895,-0.0642 -24.93277,-0.097 -44.66084,-17.96448 -44.53565,-39.75346 v -26.29106 c -0.12519,21.78898 19.60601,39.6627 44.53565,39.75503 a 13937.195,13937.195 0 0 0 48.17862,0.0814 h 0.67759"
     fill="#e7ba4a"
     id="path35"
     style="stroke:#000000;stroke-width:2.25185;stroke-dasharray:none;stroke-opacity:0" />
  <path
     d="m 823.40824,392.5597 c 25.58687,105.06564 -11.15269,192.24346 -104.67286,262.02172 -15.48889,11.54547 -30.88545,23.16761 -46.47293,34.60197 -5.31423,3.90431 -7.25465,8.43142 -7.17327,14.53277 0.36304,25.4789 1.45218,51.03604 -0.13145,76.44765 -2.85272,46.37591 -40.07739,79.16266 -93.5186,81.08899 -19.78911,0.70262 -39.63298,1.05002 -59.47372,1.05002 -23.38825,0 -46.77651,-0.47728 -70.11,-1.39272 -51.57904,-2.02179 -90.11505,-38.95852 -90.3044,-83.79462 -0.097,-24.75124 -0.25194,-49.49153 0.1424,-74.23025 0.10954,-6.40963 -2.00144,-11.08071 -7.52536,-15.20722 -19.63731,-14.69864 -39.41703,-29.30183 -58.56923,-44.47619 -49.57604,-39.33252 -84.91036,-86.22639 -95.5091,-144.52647 -14.59066,-80.35351 6.29383,-153.95157 63.40932,-218.5799 57.2125,-64.76447 133.76186,-100.66527 227.66072,-108.53178 3.29714,-0.27384 6.46753,-1.73385 9.70051,-2.65085 h 35.04953 c 3.23298,0.91544 6.4065,2.37701 9.69894,2.65085 143.02735,11.75829 258.22226,99.47443 287.7995,220.99603 z m -48.97826,93.58902 c 1.86687,-12.19175 2.78074,-24.14564 2.74475,-35.84603 -0.17996,-59.63802 -25.00318,-112.87111 -74.02526,-158.91215 -0.88101,-0.82154 -1.75263,-1.63214 -2.64147,-2.44429 -51.45072,-46.99872 -120.56391,-72.23194 -190.95559,-72.36339 -36.92421,0.0501 -73.14424,6.64123 -107.51149,20.20848 a 289.79625,289.79625 0 0 0 -5.76804,2.34571 c -88.70982,37.26692 -140.7458,99.63874 -154.33183,184.53971 -1.77767,11.11044 -2.66338,21.9971 -2.64616,32.65373 0.0908,51.34588 21.23658,97.28677 65.34972,136.2046 20.60126,18.16635 43.18988,34.71152 65.49526,51.3584 19.96437,14.9052 35.88672,31.14366 35.90863,54.18139 a 54.017078,54.017078 0 0 1 -0.73235,8.80854 c -0.84815,5.93704 2.46464,7.59266 8.22798,7.69124 6.46753,-0.0595 11.88817,-0.1111 17.31038,-0.14397 a 2073.1955,2073.1955 0 0 1 26.78555,0.002 c 4.92302,0.0329 9.84447,0.0908 14.76593,0.16744 7.45651,-0.0689 9.57219,-2.36293 9.54089,-8.37508 -0.22064,-52.58994 -0.0469,-105.19708 -0.33174,-157.78858 -0.0156,-3.30497 -2.00301,-7.37671 -4.65387,-9.76624 -15.36057,-13.85205 -31.25007,-27.29099 -46.89857,-40.91145 -12.14637,-10.57683 -24.43358,-21.04098 -36.2482,-31.88853 -5.59278,-5.13427 -8.33596,-11.10261 -8.33127,-17.15389 0.002,-3.87926 1.13452,-7.79452 3.35974,-11.5439 3.99506,-6.69913 11.59554,-11.57364 20.38374,-11.87096 1.77298,-0.009 2.55384,0.0297 3.3347,0.10641 9.99,1.84809 17.76575,5.6053 23.36948,10.20909 24.5572,20.14901 48.39144,40.96778 72.51204,61.56748 17.50599,-14.83322 34.9838,-29.6993 52.52422,-44.51844 5.83532,-4.94336 11.26066,-10.40782 17.79235,-14.54998 0.71357,-0.4538 1.43809,-0.87162 2.17044,-1.25657 a 30.365926,30.365926 0 0 1 13.65959,-3.51779 c 13.51561,0.24881 24.84826,8.08559 26.9342,20.32428 0.2316,1.58207 0.30515,2.54601 0.30515,3.48493 0,7.65368 -4.51616,13.82702 -10.89293,19.33685 -23.73878,20.56058 -47.46348,41.12897 -70.88773,61.96183 -2.69311,2.39109 -4.84321,6.42371 -4.87294,9.69894 -0.28794,52.5915 -0.0798,105.20022 -0.3474,157.79015 -0.0329,6.28757 2.20957,8.54252 8.72248,8.6771 5.49419,-0.0814 9.61757,-0.12676 13.73939,-0.15492 3.24706,-0.0235 6.49882,-0.0329 9.74902,-0.0329 3.66018,0 5.61781,0.005 7.58483,0.009 l 8.82732,0.0282 c 2.80891,0.008 5.61625,0.0188 8.42515,0.0282 l 3.37226,0.002 c 2.74162,0.005 3.80102,0.002 4.86199,0 9.38128,0 11.85687,-0.0704 11.84748,-5.21564 -0.003,-1.24719 -0.15022,-2.79639 -0.37869,-4.7149 a 55.320599,55.320599 0 0 1 -0.40843,-6.55359 c -0.0188,-18.82672 10.20283,-33.37201 26.82467,-45.91585 22.66686,-17.0913 45.74371,-33.85085 67.19312,-52.03441 37.04628,-31.37682 62.34991,-68.91602 69.24151,-113.91174 M 597.10424,804.5035 c 10.33114,-8.46898 14.70647,-18.82046 14.74089,-30.86355 0.006,-0.38652 0,-0.7793 -0.0109,-1.17051 -0.22064,-11.67848 -0.0157,-11.67848 -13.07433,-11.67848 h -90.22459 c -19.27113,0 -38.5454,-0.008 -57.81497,-0.008 -9.63479,0 -19.27114,0.003 -28.90592,0.008 h -3.77286 c -1.04532,-0.005 -2.00926,-0.009 -2.89027,-0.009 -11.55956,0 -9.70051,0.82624 -9.89143,13.46397 l -0.008,0.61812 -0.008,0.51171 c -0.12519,21.79054 19.60444,39.66426 44.53564,39.75503 8.43455,0.0344 16.86753,0.0516 25.29894,0.0642 7.62709,0.0141 15.2526,0.0172 22.88125,0.0172 h 1.45688 c 11.16364,0 22.32259,-0.011 33.48623,-0.0219 11.42185,-0.0125 22.84369,-0.025 34.26397,-0.0329 11.6378,0 21.49636,-3.71339 29.93716,-10.6535"
     fill="#EFD350"
     id="path36"
     style="opacity:1;fill:#000000;fill-opacity:1;stroke:#000000;stroke-width:0;stroke-dasharray:none;stroke-opacity:0" />
</svg>
