<?xml version="1.0" encoding="UTF-8" standalone="no"?>
<svg
   width="59"
   height="60"
   viewBox="0 0 59 60"
   fill="none"
   version="1.1"
   id="svg6"
   sodipodi:docname="win.svg"
   inkscape:version="1.3.2 (091e20e, 2023-11-25, custom)"
   xmlns:inkscape="http://www.inkscape.org/namespaces/inkscape"
   xmlns:sodipodi="http://sodipodi.sourceforge.net/DTD/sodipodi-0.dtd"
   xmlns="http://www.w3.org/2000/svg"
   xmlns:svg="http://www.w3.org/2000/svg">
  <defs
     id="defs6">
    <filter
       style="color-interpolation-filters:sRGB;"
       inkscape:label="Drop Shadow"
       id="filter20"
       x="-0.17751678"
       y="-0.15849057"
       width="1.3550336"
       height="1.3924528">
      <feFlood
         result="flood"
         in="SourceGraphic"
         flood-opacity="0.498039"
         flood-color="rgb(0,0,0)"
         id="feFlood19" />
      <feGaussianBlur
         result="blur"
         in="SourceGraphic"
         stdDeviation="3.500000"
         id="feGaussianBlur19" />
      <feOffset
         result="offset"
         in="blur"
         dx="0.000000"
         dy="4.000000"
         id="feOffset19" />
      <feComposite
         result="comp1"
         operator="in"
         in="flood"
         in2="offset"
         id="feComposite19" />
      <feComposite
         result="comp2"
         operator="over"
         in="SourceGraphic"
         in2="comp1"
         id="feComposite20" />
    </filter>
  </defs>
  <sodipodi:namedview
     id="namedview6"
     pagecolor="#ffffff"
     bordercolor="#000000"
     borderopacity="0.25"
     inkscape:showpageshadow="2"
     inkscape:pageopacity="0.0"
     inkscape:pagecheckerboard="0"
     inkscape:deskcolor="#d1d1d1"
     inkscape:zoom="6.2343248"
     inkscape:cx="5.8546837"
     inkscape:cy="35.849913"
     inkscape:window-width="1366"
     inkscape:window-height="705"
     inkscape:window-x="-8"
     inkscape:window-y="-8"
     inkscape:window-maximized="1"
     inkscape:current-layer="svg6" />
  <g
     id="g18"
     style="filter:url(#filter20)"
     transform="translate(0.16031357,-2.6889998)">
    <path
       d="m 29,39.7592 c -13.824,0 -16.272,-14.661 -16.704,-26.2928 -0.12,-3.2336 -0.1824,-4.85295 0.96,-6.34715 C 14.3984,5.6225 15.764,5.3773 18.4976,4.88689 21.9692,4.28138 25.4821,3.98492 29,4.00059 c 4.2792,0 7.8072,0.40101 10.5048,0.8863 2.7312,0.49041 4.0992,0.73561 5.2392,2.23236 1.1424,1.49676 1.0824,3.11355 0.96,6.34715 C 45.272,25.0956 42.824,39.7592 29,39.7592 Z"
       fill="#ffd233"
       id="path1" />
    <path
       d="m 42.457512,30.563589 6.664948,-3.9973 c 1.779212,-1.0676 2.668818,-1.6014 3.16094,-2.5005 0.489757,-0.8991 0.489757,-1.9974 0.489757,-4.1965 v -0.1865 c 0,-2.664 0,-3.9973 -0.669571,-5.0011 -0.66957,-1.0038 -1.840727,-1.4252 -4.183041,-2.2681 l -2.245309,-0.8071 -0.04022,0.2171 c -0.01183,0.4827 -0.03076,1.0089 -0.05205,1.5861 -0.208206,5.6831 -0.891972,12.089 -3.123085,17.1539 m -29.813635,-17.1539 c 0.205839,5.6831 0.889606,12.089 3.123085,17.1539 l -6.6649476,-3.9973 c -1.7792121,-1.0676 -2.6711842,-1.6014 -3.1609407,-2.5005 -0.4897565,-0.8991 -0.4897565,-1.9974 -0.4897565,-4.1965 v -0.1865 c 0,-2.664 0,-3.9973 0.6695705,-5.0011 0.6695705,-1.0038 1.8407274,-1.4252 4.1830413,-2.2681 l 2.245309,-0.8071 0.04022,0.2222 c 0.01183,0.4802 0.03076,1.0063 0.05205,1.5836"
       fill="#ffd233"
       id="path2"
       style="stroke-width:0.992886" />
    <path
       fill-rule="evenodd"
       clip-rule="evenodd"
       d="m 12.8,55.0844 c 0,-0.5081 0.1896,-0.9954 0.5272,-1.3546 0.3376,-0.3593 0.7954,-0.5611 1.2728,-0.5611 h 28.8 c 0.4774,0 0.9352,0.2018 1.2728,0.5611 0.3376,0.3592 0.5272,0.8465 0.5272,1.3546 0,0.508 -0.1896,0.9953 -0.5272,1.3545 C 44.3352,56.7982 43.8774,57 43.4,57 H 14.6 C 14.1226,57 13.6648,56.7982 13.3272,56.4389 12.9896,56.0797 12.8,55.5924 12.8,55.0844 Z"
       fill="#ffd233"
       id="path3" />
    <path
       d="m 37.2992,53.1687 h -16.596 l 0.7128,-4.4698 c 0.1087,-0.5788 0.4024,-1.0997 0.8312,-1.4741 0.4288,-0.3743 0.9662,-0.5791 1.5208,-0.5795 h 10.464 c 0.555,-2e-4 1.093,0.2043 1.5223,0.5787 0.4292,0.3744 0.7233,0.8957 0.8321,1.4749 z"
       fill="#ffd233"
       id="path4" />
    <path
       d="m 29,39.7592 c -0.624,0 -1.224,-0.0281 -1.8,-0.0868 v 6.9729 h 3.6 v -6.9729 c -0.5984,0.059 -1.1991,0.088 -1.8,0.0868 z M 26.9504,14.2761 c 0.912,-1.7445 1.368,-2.6129 2.0496,-2.6129 0.6816,0 1.1376,0.8684 2.0496,2.6129 l 0.2352,0.4495 c 0.2592,0.4955 0.3888,0.7407 0.5904,0.9042 0.204,0.1635 0.456,0.2248 0.96,0.3448 l 0.456,0.1124 c 1.7712,0.4266 2.6568,0.6386 2.868,1.3588 0.2112,0.7229 -0.3936,1.4738 -1.6008,2.9757 l -0.312,0.3882 c -0.3432,0.4266 -0.516,0.6386 -0.5928,0.9042 -0.0768,0.2656 -0.0504,0.5491 0,1.1187 l 0.048,0.5185 c 0.1824,2.0051 0.2736,3.0089 -0.276,3.4533 -0.552,0.4444 -1.3824,0.0383 -3.0408,-0.7739 L 29.9576,25.821 C 29.4848,25.5911 29.2496,25.4762 29,25.4762 c -0.2496,0 -0.4848,0.1149 -0.9576,0.3448 l -0.4272,0.2095 c -1.6584,0.8148 -2.4888,1.2183 -3.0408,0.7739 -0.552,-0.4444 -0.4584,-1.4482 -0.276,-3.4533 l 0.048,-0.5185 c 0.0504,-0.5696 0.0768,-0.8531 0,-1.1187 -0.0768,-0.2631 -0.2496,-0.4776 -0.5928,-0.9042 l -0.312,-0.3882 c -1.2072,-1.5019 -1.812,-2.2528 -1.6008,-2.9757 0.2112,-0.7202 1.0968,-0.9322 2.868,-1.3588 l 0.456,-0.1124 c 0.504,-0.12 0.756,-0.1788 0.96,-0.3448 0.2016,-0.1635 0.3312,-0.4087 0.5904,-0.9042 z"
       fill="#ffd233"
       id="path5" />
    <path
       d="m 29.3692,40.7137 c -0.8319,0 -1.6318,-0.0243 -2.3997,-0.0752 v 6.0368 h 4.7995 v -6.0368 c -0.7978,0.0511 -1.5986,0.0762 -2.3998,0.0752 z M 26.6367,18.6518 c 1.2159,-1.5104 1.8238,-2.2622 2.7325,-2.2622 0.9087,0 1.5167,0.7518 2.7326,2.2622 l 0.3135,0.3891 c 0.3456,0.429 0.5184,0.6413 0.7872,0.7828 0.2719,0.1416 0.6079,0.1946 1.2799,0.2986 l 0.6079,0.0973 c 2.3614,0.3692 3.5421,0.5528 3.8236,1.1764 0.2816,0.6257 -0.5247,1.2759 -2.1342,2.5761 l -0.4159,0.3361 c -0.4576,0.3693 -0.688,0.5528 -0.7903,0.7828 -0.1024,0.23 -0.0672,0.4754 0,0.9685 l 0.0639,0.4489 c 0.2432,1.7359 0.3648,2.6049 -0.3679,2.9897 -0.736,0.3848 -1.843,0.0332 -4.054,-0.67 l -0.5696,-0.1814 c -0.6303,-0.199 -0.9439,-0.2985 -1.2767,-0.2985 -0.3327,0 -0.6463,0.0995 -1.2767,0.2985 l -0.5695,0.1814 c -2.211,0.7054 -3.3181,1.0548 -4.054,0.67 -0.7359,-0.3848 -0.6112,-1.2538 -0.368,-2.9897 l 0.064,-0.4489 c 0.0672,-0.4931 0.1024,-0.7385 0,-0.9685 -0.1024,-0.2278 -0.3328,-0.4135 -0.7903,-0.7828 l -0.416,-0.3361 c -1.6094,-1.3002 -2.4158,-1.9504 -2.1342,-2.5761 0.2816,-0.6236 1.4623,-0.8072 3.8237,-1.1764 l 0.6079,-0.0973 c 0.6719,-0.104 1.0079,-0.1548 1.2799,-0.2986 0.2688,-0.1415 0.4415,-0.3538 0.7871,-0.7828 z"
       fill="#ec9b21"
       id="path6" />
  </g>
</svg>
